
        <svg xmlns="http://www.w3.org/2000/svg" xmlns:xlink="http://www.w3.org/1999/xlink" version="1.1" width="3171.4285714285716" 
        height="2827.756789031427" viewBox="0 0 3171.4285714285716 2827.756789031427">
			
			<g transform="scale(8.571428571428571) translate(10, 10)">
				<defs id="SvgjsDefs14002"></defs><g id="SvgjsG14003" featureKey="hmhgWD-0" transform="matrix(2.9411767911510656,0,0,2.9411767911510656,32.741173448321874,-38.87353367108303)" fill="#bdbdff"><g xmlns="http://www.w3.org/2000/svg"><g><path fill="#bdbdff" d="M39.486,42.795c-1.941,2.495-3.107,5.312-3.498,8.45h11.949L39.486,42.795z"></path><path fill="#bdbdff" d="M51.375,24.195c-6.328,0.468-11.894,2.772-16.697,6.918l16.697,16.696V24.195z"></path><path fill="#bdbdff" d="M13.348,56.104c0.494,9.345,3.871,17.498,10.13,24.458l24.459-24.458H13.348z"></path><path fill="#bdbdff" d="M34.894,76.019c4.745,4.088,10.237,6.364,16.481,6.828V59.538L34.894,76.019z"></path><path fill="#bdbdff" d="M56.234,71.669c3.186-0.392,6.045-1.577,8.576-3.552l-8.576-8.577V71.669z"></path><path fill="#bdbdff" d="M59.669,56.104l16.744,16.744c4.158-4.818,6.469-10.398,6.935-16.744H59.669z"></path><path fill="#bdbdff" d="M82.964,51.245c-0.463-6.241-2.738-11.731-6.822-16.473L59.668,51.245H82.964z"></path><path fill="#bdbdff" d="M80.692,23.351c-6.959-6.262-15.112-9.639-24.459-10.134v34.591L80.692,23.351z"></path></g></g></g><g id="SvgjsG14004" featureKey="nameFeature-0" transform="matrix(2.6223121060832804,0,0,2.6223121060832804,-2.0978489346171125,213.46182773356625)" fill="#bdbdff"><path d="M5.18 20 l-4.38 -15.6 l4.26 0 l2.52 9.3 l2.92 -9.3 l3.56 0 l2.92 9.28 l2.52 -9.28 l4.28 0 l-4.38 15.6 l-4.14 0 l-2.98 -9.06 l-2.96 9.06 l-4.14 0 z M30.045 20 l6.32 -15.6 l3.96 0 l6.3 15.6 l-4.36 0 l-1.26 -3.48 l-5.3 0 l-1.3 3.48 l-4.36 0 z M36.945 13.280000000000001 l2.78 -0.02 l-1.38 -3.74 z M52.89 20 l0 -15.6 l3.98 0 l0 11.74 l7.48 0 l0 3.86 l-11.46 0 z M70.615 20 l0 -15.6 l3.98 0 l0 11.74 l7.48 0 l0 3.86 l-11.46 0 z M88.33999999999999 20 l6.32 -15.6 l3.96 0 l6.3 15.6 l-4.36 0 l-1.26 -3.48 l-5.3 0 l-1.3 3.48 l-4.36 0 z M95.24 13.280000000000001 l2.78 -0.02 l-1.38 -3.74 z M111.18499999999999 20 l0 -15.6 l7.76 0 c1.62 0 2.88 0.4 3.76 1.2 c0.86 0.8 1.3 1.86 1.3 3.2 c0 1.52 -0.64 2.64 -1.9 3.34 c1.26 0.72 1.9 1.94 1.9 3.46 c0 1.34 -0.44 2.4 -1.3 3.2 c-0.88 0.82 -2.14 1.2 -3.76 1.2 l-7.76 0 z M115.18499999999999 10.66 l3.3 0 c0.98 0 1.48 -0.44 1.48 -1.28 c0 -0.38 -0.1 -0.7 -0.32 -0.94 c-0.22 -0.22 -0.52 -0.32 -0.94 -0.32 l-3.52 0 l0 2.54 z M115.18499999999999 16.28 l3.52 0 c0.42 0 0.72 -0.1 0.94 -0.32 c0.22 -0.24 0.32 -0.54 0.32 -0.94 c0 -0.84 -0.5 -1.28 -1.48 -1.28 l-3.3 0 l0 2.54 z M130.27 20 l0 -15.6 l4 0 l0 15.6 l-4 0 z"></path></g><g id="SvgjsG14005" featureKey="nameFeature-1" transform="matrix(2.098572793740585,0,0,2.098572793740585,-1.6788578847553475,267.39586275325144)" fill="#bdbdff"><path d="M7.44 20.3 c-1.94 0 -3.52 -0.42 -4.76 -1.28 s-1.86 -2.02 -1.86 -3.52 l0 -0.18 l-0.02 -0.8 l3.92 0 l0 0.9 c0 0.34 0.24 0.66 0.7 0.96 s1.1 0.46 1.94 0.46 c0.7 0 1.2 -0.1 1.52 -0.28 c0.3 -0.18 0.46 -0.42 0.46 -0.68 c0 -0.32 -0.2 -0.6 -0.58 -0.84 c-0.4 -0.24 -1.1 -0.52 -2.08 -0.86 c-0.62 -0.22 -1.14 -0.4 -1.56 -0.56 s-0.92 -0.4 -1.5 -0.72 c-0.58 -0.3 -1.06 -0.64 -1.4 -0.98 s-0.64 -0.76 -0.9 -1.28 s-0.38 -1.08 -0.38 -1.7 c0 -1.46 0.56 -2.64 1.7 -3.52 s2.6 -1.32 4.4 -1.32 c1.86 0 3.38 0.46 4.58 1.38 s1.8 2.14 1.8 3.66 l0 0.98 l-3.9 0 l0 -0.9 c0 -0.42 -0.2 -0.82 -0.62 -1.16 s-1.02 -0.5 -1.78 -0.5 c-0.62 0 -1.1 0.1 -1.42 0.3 c-0.32 0.22 -0.48 0.46 -0.48 0.76 s0.18 0.54 0.54 0.74 c0.36 0.22 1.04 0.5 2.04 0.84 l1.02 0.36 l1.08 0.44 c0.46 0.22 0.84 0.4 1.12 0.58 s0.6 0.42 0.98 0.72 s0.66 0.62 0.88 0.92 c0.2 0.3 0.38 0.68 0.54 1.1 c0.14 0.42 0.22 0.88 0.22 1.34 c0 1.48 -0.58 2.62 -1.72 3.42 c-1.14 0.82 -2.64 1.22 -4.48 1.22 z M28.185000000000002 20.3 c-2.26 0 -4.2 -0.8 -5.82 -2.38 c-1.64 -1.58 -2.46 -3.5 -2.46 -5.72 s0.82 -4.14 2.46 -5.72 c1.62 -1.58 3.56 -2.38 5.82 -2.38 c2.28 0 4.24 0.8 5.86 2.38 s2.42 3.5 2.42 5.72 s-0.8 4.14 -2.42 5.72 s-3.58 2.38 -5.86 2.38 z M28.185000000000002 16.44 c1.2 0 2.2 -0.42 3.02 -1.24 s1.22 -1.82 1.22 -3 s-0.4 -2.2 -1.22 -3.02 s-1.82 -1.22 -3.02 -1.22 c-1.18 0 -2.18 0.42 -3 1.24 s-1.24 1.82 -1.24 3 s0.42 2.18 1.24 3 s1.82 1.24 3 1.24 z M42.73 20 l0 -15.6 l3.98 0 l0 11.74 l7.48 0 l0 3.86 l-11.46 0 z M67.615 20 c-2.26 0 -4.02 -0.64 -5.28 -1.96 c-1.26 -1.3 -1.88 -2.96 -1.88 -5.02 l0 -8.62 l4 0 l0 8.38 c0 1.12 0.26 1.96 0.8 2.54 c0.54 0.6 1.32 0.9 2.36 0.9 s1.84 -0.3 2.38 -0.9 c0.54 -0.58 0.82 -1.42 0.82 -2.54 l0 -8.38 l3.98 0 l0 8.62 c0 2.04 -0.64 3.7 -1.9 5.02 s-3.02 1.96 -5.28 1.96 z M85.92 20 l0 -11.72 l-4.86 0 l0 -3.88 l13.72 0 l0 3.88 l-4.86 0 l0 11.72 l-4 0 z M101.045 20 l0 -15.6 l4 0 l0 15.6 l-4 0 z M119.59 20.3 c-2.26 0 -4.2 -0.8 -5.82 -2.38 c-1.64 -1.58 -2.46 -3.5 -2.46 -5.72 s0.82 -4.14 2.46 -5.72 c1.62 -1.58 3.56 -2.38 5.82 -2.38 c2.28 0 4.24 0.8 5.86 2.38 s2.42 3.5 2.42 5.72 s-0.8 4.14 -2.42 5.72 s-3.58 2.38 -5.86 2.38 z M119.59 16.44 c1.2 0 2.2 -0.42 3.02 -1.24 s1.22 -1.82 1.22 -3 s-0.4 -2.2 -1.22 -3.02 s-1.82 -1.22 -3.02 -1.22 c-1.18 0 -2.18 0.42 -3 1.24 s-1.24 1.82 -1.24 3 s0.42 2.18 1.24 3 s1.82 1.24 3 1.24 z M134.13500000000002 20 l0 -15.6 l3.4 0 l6.96 8.72 l0 -8.72 l3.98 0 l0 15.6 l-3.38 0 l-6.96 -8.7 l0 8.7 l-4 0 z M161.38 20.3 c-1.94 0 -3.52 -0.42 -4.76 -1.28 s-1.86 -2.02 -1.86 -3.52 l0 -0.18 l-0.02 -0.8 l3.92 0 l0 0.9 c0 0.34 0.24 0.66 0.7 0.96 s1.1 0.46 1.94 0.46 c0.7 0 1.2 -0.1 1.52 -0.28 c0.3 -0.18 0.46 -0.42 0.46 -0.68 c0 -0.32 -0.2 -0.6 -0.58 -0.84 c-0.4 -0.24 -1.1 -0.52 -2.08 -0.86 c-0.62 -0.22 -1.14 -0.4 -1.56 -0.56 s-0.92 -0.4 -1.5 -0.72 c-0.58 -0.3 -1.06 -0.64 -1.4 -0.98 s-0.64 -0.76 -0.9 -1.28 s-0.38 -1.08 -0.38 -1.7 c0 -1.46 0.56 -2.64 1.7 -3.52 s2.6 -1.32 4.4 -1.32 c1.86 0 3.38 0.46 4.58 1.38 s1.8 2.14 1.8 3.66 l0 0.98 l-3.9 0 l0 -0.9 c0 -0.42 -0.2 -0.82 -0.62 -1.16 s-1.02 -0.5 -1.78 -0.5 c-0.62 0 -1.1 0.1 -1.42 0.3 c-0.32 0.22 -0.48 0.46 -0.48 0.76 s0.18 0.54 0.54 0.74 c0.36 0.22 1.04 0.5 2.04 0.84 l1.02 0.36 l1.08 0.44 c0.46 0.22 0.84 0.4 1.12 0.58 s0.6 0.42 0.98 0.72 s0.66 0.62 0.88 0.92 c0.2 0.3 0.38 0.68 0.54 1.1 c0.14 0.42 0.22 0.88 0.22 1.34 c0 1.48 -0.58 2.62 -1.72 3.42 c-1.14 0.82 -2.64 1.22 -4.48 1.22 z"></path></g>
			</g>
		</svg>
	